<svg width="1366" height="126" viewBox="0 0 1366 126" fill="none" xmlns="http://www.w3.org/2000/svg">
<line x1="576" y1="63.5" x2="4.37113e-08" y2="63.5" stroke="#EEBF3A"/>
<line x1="576" y1="63.5" x2="4.37113e-08" y2="63.5" stroke="#EEBF3A"/>
<line x1="576" y1="63.5" x2="4.37113e-08" y2="63.5" stroke="#EEBF3A"/>
<line x1="1366" y1="63.5" x2="790" y2="63.5" stroke="#EEBF3A"/>
<line x1="1366" y1="63.5" x2="790" y2="63.5" stroke="#EEBF3A"/>
<line x1="1366" y1="63.5" x2="790" y2="63.5" stroke="#EEBF3A"/>
<path fill-rule="evenodd" clip-rule="evenodd" d="M670.428 23.4059C670.428 21.4417 671.209 19.558 672.599 18.1691C673.989 16.7803 675.874 16 677.841 16H722.318C724.284 16 726.169 16.7803 727.56 18.1691C728.95 19.558 729.731 21.4417 729.731 23.4059V41.9207H670.428V23.4059ZM713.052 27.1089C712.56 27.1089 712.089 27.3039 711.741 27.6511C711.394 27.9984 711.199 28.4693 711.199 28.9603V32.6633C711.199 33.1543 711.394 33.6253 711.741 33.9725C712.089 34.3197 712.56 34.5148 713.052 34.5148H720.465C720.956 34.5148 721.428 34.3197 721.775 33.9725C722.123 33.6253 722.318 33.1543 722.318 32.6633V28.9603C722.318 28.4693 722.123 27.9984 721.775 27.6511C721.428 27.3039 720.956 27.1089 720.465 27.1089H713.052Z" fill="#FFC41E"/>
<path d="M670.427 49.3267V53.0296C670.427 54.9938 671.208 56.8775 672.598 58.2664C673.989 59.6553 675.874 60.4355 677.84 60.4355H722.318C724.284 60.4355 726.169 59.6553 727.559 58.2664C728.949 56.8775 729.73 54.9938 729.73 53.0296V49.3267H670.427Z" fill="#FFC41E"/>
<mask id="path-5-inside-1" fill="white">
<rect x="619" y="50.7286" width="20.1631" height="58.2713" rx="2"/>
</mask>
<rect x="619" y="50.7286" width="20.1631" height="58.2713" rx="2" stroke="#242424" stroke-width="10" mask="url(#path-5-inside-1)"/>
<path d="M645.52 60.6232V99.2725C654.415 99.2725 657.152 101.08 666.276 101.651C697.359 111.43 703.918 108.055 719.047 99.2725C724.645 96.0235 733.74 88.9827 740.036 83.8128C748.49 75.4406 747.64 73.2288 745.742 71.3261C737.44 63.0016 728.544 82.6236 711.939 83.8128C699.154 84.7285 677.543 82.6236 672.206 82.6236" stroke="#242424" stroke-width="5"/>
<path d="M643.558 60.6544C648.767 60.2826 659.221 58.7453 663.904 60.6233C669.834 63.0017 672.297 68.2104 675.67 69.341C683.366 71.9207 695.947 71.4901 700.672 71.9207C707.195 72.5153 717.87 72.5153 717.277 81.4344C716.902 87.0628 685.253 82.6236 672.799 82.6236" stroke="#242424" stroke-width="5"/>
</svg>
