<svg width="1366" height="126" viewBox="0 0 1366 126" fill="none" xmlns="http://www.w3.org/2000/svg">
<path d="M644 76.9351V38.1564C644 36.2865 644.733 34.4931 646.037 33.1709C647.341 31.8486 649.109 31.1058 650.953 31.1058V31.1058C652.798 31.1058 654.566 31.8486 655.87 33.1709C657.174 34.4931 657.907 36.2865 657.907 38.1564V62.8338" stroke="black" stroke-width="4" stroke-linecap="round" stroke-linejoin="round"/>
<path d="M657.907 63.0657V24.287C657.907 22.417 658.671 20.6237 660.032 19.3014C661.393 17.9792 663.238 17.2363 665.163 17.2363C667.087 17.2363 668.933 17.9792 670.293 19.3014C671.654 20.6237 672.418 22.417 672.418 24.287V59.5404" stroke="black" stroke-width="4" stroke-linecap="round" stroke-linejoin="round"/>
<path d="M686.326 59.629V27.8646C686.326 26.0054 687.09 24.2223 688.451 22.9077C689.812 21.5931 691.657 20.8545 693.582 20.8545V20.8545C695.506 20.8545 697.352 21.5931 698.712 22.9077C700.073 24.2223 700.837 26.0054 700.837 27.8646V76.9352" stroke="black" stroke-width="4" stroke-linecap="round" stroke-linejoin="round"/>
<path d="M672.418 59.4475V17.0639C672.418 15.1905 673.151 13.3937 674.455 12.069C675.759 10.7442 677.528 10 679.372 10C681.216 10 682.985 10.7442 684.289 12.069C685.593 13.3937 686.325 15.1905 686.325 17.0639V59.4475" stroke="black" stroke-width="4" stroke-linecap="round" stroke-linejoin="round"/>
<path d="M644 77.0959C644 103.134 658.18 116.132 677.678 116.132C697.176 116.132 705.088 107.349 709.583 96.6137L721.262 64.6755C722.738 60.6722 722.069 56.9593 718.632 55.0053C715.193 53.0491 710.676 54.0561 708.815 57.5959L700.721 77.0959" stroke="black" stroke-width="4" stroke-linecap="round" stroke-linejoin="round"/>
<path fill-rule="evenodd" clip-rule="evenodd" d="M681.524 80.5056C681.714 80.5338 681.905 80.548 682.097 80.548C683.502 80.548 684.868 79.8062 685.945 78.4587C686.903 77.2593 687.569 75.6447 687.823 73.9101C688.422 69.7838 686.596 66.2189 683.667 65.7875C683.477 65.7592 683.286 65.7451 683.094 65.7451C681.691 65.7469 680.322 66.4878 679.247 67.8326C678.288 69.0311 677.618 70.6475 677.369 72.3848C676.77 76.5111 678.595 80.076 681.524 80.5056ZM670.608 80.5481C669.203 80.5481 667.837 79.8063 666.76 78.4588C665.8 77.2594 665.131 75.6448 664.881 73.912C664.282 69.7839 666.107 66.219 669.037 65.7894C669.226 65.7611 669.418 65.747 669.609 65.747C671.013 65.747 672.381 66.4879 673.456 67.8327C674.416 69.0312 675.085 70.6476 675.336 72.3831C675.935 76.5112 674.11 80.0761 671.18 80.5057C670.991 80.5339 670.799 80.5481 670.608 80.5481ZM697.563 77.9082C697.061 76.7178 696.227 75.8595 695.15 75.4272L695.135 75.4218C694.645 75.2303 694.123 75.1324 693.597 75.133H693.539C691.074 75.17 688.557 77.2593 687.277 80.3324C686.339 82.5796 686.231 84.9965 686.99 86.7979C687.491 87.9893 688.327 88.8475 689.409 89.2798L689.42 89.2844C689.911 89.4757 690.432 89.5736 690.959 89.5732C693.447 89.5732 695.99 87.4838 697.294 84.3702C698.22 82.1256 698.322 79.7105 697.563 77.9082ZM687.714 91.1626C686.292 90.3106 684.948 89.5047 684.07 88.057C681.649 84.0499 680.186 81.6312 676.352 81.6312C672.518 81.6312 671.052 84.0499 668.624 88.057C667.746 89.505 666.401 90.3116 664.977 91.1662L664.977 91.1662L664.972 91.1689L664.972 91.169C663.337 92.1491 661.647 93.1617 660.918 95.1544C660.634 95.8727 660.491 96.6387 660.497 97.4107C660.497 100.655 663.031 103.295 666.144 103.295C667.75 103.295 669.46 102.74 671.269 102.152C673.008 101.587 674.806 101.004 676.361 101.004C677.916 101.004 679.709 101.587 681.442 102.152L681.491 102.168L681.491 102.168C683.278 102.746 684.963 103.291 686.56 103.291C689.668 103.291 692.198 100.652 692.198 97.407C692.2 96.6345 692.054 95.8686 691.768 95.1508C691.038 93.1565 689.348 92.143 687.714 91.1631L687.714 91.1626ZM663.296 89.2798L663.284 89.2844C662.794 89.4756 662.273 89.5736 661.748 89.5732C659.262 89.5732 656.72 87.4829 655.423 84.3729C654.486 82.1257 654.38 79.7114 655.138 77.9064C655.638 76.716 656.474 75.855 657.551 75.4263L657.563 75.4218C658.053 75.2302 658.575 75.1322 659.102 75.133C661.588 75.133 664.13 77.2232 665.426 80.3333C666.363 82.5805 666.47 84.9947 665.712 86.7997C665.211 87.9902 664.376 88.8475 663.296 89.2798Z" fill="#FFC41E"/>
<line x1="576" y1="63.5" x2="4.37113e-08" y2="63.5" stroke="#EEBF3A"/>
<line x1="576" y1="63.5" x2="4.37113e-08" y2="63.5" stroke="#EEBF3A"/>
<line x1="576" y1="63.5" x2="4.37113e-08" y2="63.5" stroke="#EEBF3A"/>
<line x1="1366" y1="63.5" x2="790" y2="63.5" stroke="#EEBF3A"/>
<line x1="1366" y1="63.5" x2="790" y2="63.5" stroke="#EEBF3A"/>
<line x1="1366" y1="63.5" x2="790" y2="63.5" stroke="#EEBF3A"/>
</svg>
