<svg width="1366" height="126" viewBox="0 0 1366 126" fill="none" xmlns="http://www.w3.org/2000/svg">
<line x1="576" y1="63.5" x2="4.37113e-08" y2="63.5" stroke="#EEBF3A"/>
<line x1="576" y1="63.5" x2="4.37113e-08" y2="63.5" stroke="#EEBF3A"/>
<line x1="576" y1="63.5" x2="4.37113e-08" y2="63.5" stroke="#EEBF3A"/>
<line x1="1366" y1="63.5" x2="790" y2="63.5" stroke="#EEBF3A"/>
<line x1="1366" y1="63.5" x2="790" y2="63.5" stroke="#EEBF3A"/>
<line x1="1366" y1="63.5" x2="790" y2="63.5" stroke="#EEBF3A"/>
<mask id="path-3-inside-1" fill="white">
<path fill-rule="evenodd" clip-rule="evenodd" d="M659.37 13H638.956V31.967H620V52.3932H638.956V71.3604H659.37V52.3932H678.326V31.967H659.37V13Z"/>
</mask>
<path d="M638.956 13V9H634.956V13H638.956ZM659.37 13H663.37V9H659.37V13ZM638.956 31.967V35.967H642.956V31.967H638.956ZM620 31.967V27.967H616V31.967H620ZM620 52.3932H616V56.3932H620V52.3932ZM638.956 52.3932H642.956V48.3932H638.956V52.3932ZM638.956 71.3604H634.956V75.3604H638.956V71.3604ZM659.37 71.3604V75.3604H663.37V71.3604H659.37ZM659.37 52.3932V48.3932H655.37V52.3932H659.37ZM678.326 52.3932V56.3932H682.326V52.3932H678.326ZM678.326 31.967H682.326V27.967H678.326V31.967ZM659.37 31.967H655.37V35.967H659.37V31.967ZM638.956 17H659.37V9H638.956V17ZM642.956 31.967V13H634.956V31.967H642.956ZM620 35.967H638.956V27.967H620V35.967ZM624 52.3932V31.967H616V52.3932H624ZM638.956 48.3932H620V56.3932H638.956V48.3932ZM642.956 71.3604V52.3932H634.956V71.3604H642.956ZM659.37 67.3604H638.956V75.3604H659.37V67.3604ZM655.37 52.3932V71.3604H663.37V52.3932H655.37ZM678.326 48.3932H659.37V56.3932H678.326V48.3932ZM674.326 31.967V52.3932H682.326V31.967H674.326ZM659.37 35.967H678.326V27.967H659.37V35.967ZM655.37 13V31.967H663.37V13H655.37Z" fill="#FFC41E" mask="url(#path-3-inside-1)"/>
<path d="M679.737 64.9967L705.45 73.9223V110.333C705.45 111.04 705.161 111.719 704.647 112.219C704.132 112.719 703.434 113 702.707 113H691.731C691.004 113 690.306 112.719 689.791 112.219C689.277 111.719 688.988 111.04 688.988 110.333V91.6652H661.549V110.333C661.549 111.04 661.26 111.719 660.746 112.219C660.231 112.719 659.533 113 658.806 113H647.83C647.103 113 646.405 112.719 645.89 112.219C645.376 111.719 645.086 111.04 645.086 110.333V74.679C638.714 72.4705 634.111 66.6068 634.111 59.663C634.111 58.2484 634.689 56.8918 635.718 55.8915C636.748 54.8912 638.143 54.3293 639.599 54.3293C641.054 54.3293 642.45 54.8912 643.479 55.8915C644.508 56.8918 645.086 58.2484 645.086 59.663C645.089 61.0768 645.668 62.4319 646.697 63.4316C647.725 64.4312 649.12 64.994 650.574 64.9967H679.737ZM721.913 46.3287V51.6624C721.913 54.4916 720.757 57.2049 718.699 59.2054C716.64 61.206 713.849 62.3298 710.938 62.3298H705.45V68.2602L683.5 60.6414V35.6614C683.5 33.2862 686.453 32.0961 688.183 33.7762L692.861 38.3282H702.058C703.929 38.3282 706.131 39.6483 706.966 41.2767L708.194 43.6619H719.17C719.897 43.6619 720.595 43.9429 721.11 44.443C721.624 44.9431 721.913 45.6215 721.913 46.3287ZM702.707 46.3287C702.707 45.8013 702.546 45.2857 702.244 44.8471C701.943 44.4086 701.514 44.0667 701.013 43.8649C700.511 43.6631 699.96 43.6102 699.428 43.7131C698.895 43.816 698.406 44.07 698.023 44.443C697.639 44.816 697.378 45.2912 697.272 45.8085C697.166 46.3258 697.22 46.862 697.428 47.3493C697.636 47.8366 697.987 48.2531 698.438 48.5462C698.89 48.8392 699.42 48.9956 699.963 48.9956C700.691 48.9956 701.388 48.7146 701.903 48.2145C702.418 47.7144 702.707 47.036 702.707 46.3287Z" fill="#242424"/>
<path d="M747 96.5273C747 105.705 739.466 113 729.988 113H715.407C705.929 113 698.395 105.705 698.395 96.5273V89.4675H747V96.5273Z" fill="#FFC41E"/>
</svg>
