<svg width="1366" height="145" viewBox="0 0 1366 145" fill="none" xmlns="http://www.w3.org/2000/svg">
<path fill-rule="evenodd" clip-rule="evenodd" d="M681.966 5.49226C682.828 4.41391 684.401 4.23875 685.48 5.10103L756.476 61.8717C757.554 62.734 757.73 64.3072 756.867 65.3856C756.005 66.4639 754.432 66.6391 753.353 65.7768L682.357 9.00608C681.279 8.14381 681.104 6.57061 681.966 5.49226Z" fill="#242424"/>
<path fill-rule="evenodd" clip-rule="evenodd" d="M685.871 5.49226C686.734 6.57061 686.558 8.14381 685.48 9.00608L614.484 65.7768C613.405 66.6391 611.832 66.4639 610.97 65.3856C610.108 64.3072 610.283 62.734 611.361 61.8717L682.357 5.10103C683.436 4.23875 685.009 4.41391 685.871 5.49226Z" fill="#242424"/>
<path fill-rule="evenodd" clip-rule="evenodd" d="M634.221 47.1316C635.602 47.1316 636.721 48.2509 636.721 49.6316V141.884C636.721 143.265 635.602 144.384 634.221 144.384C632.84 144.384 631.721 143.265 631.721 141.884V49.6316C631.721 48.2509 632.84 47.1316 634.221 47.1316Z" fill="#242424"/>
<path fill-rule="evenodd" clip-rule="evenodd" d="M733.616 47.1316C734.997 47.1316 736.116 48.2509 736.116 49.6316V141.884C736.116 143.265 734.997 144.384 733.616 144.384C732.235 144.384 731.116 143.265 731.116 141.884V49.6316C731.116 48.2509 732.235 47.1316 733.616 47.1316Z" fill="#242424"/>
<path fill-rule="evenodd" clip-rule="evenodd" d="M631.721 141.884C631.721 140.503 632.84 139.384 634.221 139.384H733.616C734.997 139.384 736.116 140.503 736.116 141.884C736.116 143.265 734.997 144.384 733.616 144.384H634.221C632.84 144.384 631.721 143.265 631.721 141.884Z" fill="#242424"/>
<path d="M684.429 81.1502L702.949 87.6139V113.982C702.949 114.494 702.741 114.985 702.37 115.347C701.999 115.709 701.497 115.913 700.973 115.913H693.068C692.544 115.913 692.041 115.709 691.67 115.347C691.3 114.985 691.092 114.494 691.092 113.982V100.463H671.33V113.982C671.33 114.494 671.122 114.985 670.751 115.347C670.38 115.709 669.878 115.913 669.354 115.913H661.449C660.925 115.913 660.422 115.709 660.052 115.347C659.681 114.985 659.473 114.494 659.473 113.982V88.1619C654.883 86.5626 651.568 82.3162 651.568 77.2877C651.568 76.2633 651.984 75.2809 652.726 74.5565C653.467 73.8322 654.472 73.4252 655.52 73.4252C656.569 73.4252 657.574 73.8322 658.315 74.5565C659.056 75.2809 659.473 76.2633 659.473 77.2877C659.475 78.3115 659.892 79.2929 660.632 80.0168C661.373 80.7408 662.377 81.1483 663.425 81.1502H684.429ZM714.806 67.6314V71.4939C714.806 73.5428 713.973 75.5077 712.491 76.9564C711.008 78.4051 708.998 79.219 706.901 79.219H702.949V83.5136L687.139 77.9963V59.9064C687.139 58.1864 689.266 57.3245 690.512 58.5412L693.882 61.8376H700.506C701.853 61.8376 703.439 62.7936 704.041 63.9729L704.925 65.7002H712.83C713.354 65.7002 713.857 65.9036 714.227 66.2658C714.598 66.628 714.806 67.1192 714.806 67.6314ZM700.973 67.6314C700.973 67.2495 700.857 66.8761 700.64 66.5585C700.422 66.2409 700.114 65.9934 699.753 65.8472C699.392 65.701 698.994 65.6628 698.611 65.7373C698.228 65.8118 697.875 65.9957 697.599 66.2658C697.323 66.5359 697.134 66.88 697.058 67.2547C696.982 67.6293 697.021 68.0176 697.171 68.3705C697.32 68.7234 697.574 69.025 697.899 69.2372C698.224 69.4494 698.606 69.5627 698.996 69.5627C699.521 69.5627 700.023 69.3592 700.394 68.997C700.764 68.6349 700.973 68.1436 700.973 67.6314Z" fill="#242424"/>
<path d="M670.708 11.8739C669.727 9.55032 668.312 7.44471 666.543 5.67495C664.772 3.8999 662.685 2.4893 660.394 1.51985C658.019 0.510592 655.471 -0.00600271 652.898 5.26228e-05C649.29 5.26228e-05 645.769 1.01075 642.709 2.91985C641.977 3.37654 641.281 3.87815 640.623 4.42467C639.964 3.87815 639.268 3.37654 638.536 2.91985C635.477 1.01075 631.956 5.26228e-05 628.347 5.26228e-05C625.748 5.26228e-05 623.23 0.509146 620.851 1.51985C618.553 2.49311 616.481 3.89312 614.702 5.67495C612.931 7.44272 611.516 9.54882 610.537 11.8739C609.52 14.2921 609 16.86 609 19.5028C609 21.9959 609.498 24.5938 610.486 27.2365C611.313 29.4451 612.499 31.736 614.014 34.0494C616.415 37.7104 619.717 41.5286 623.816 45.3992C630.609 51.8153 637.336 56.2474 637.621 56.4271L639.356 57.565C640.125 58.0667 641.113 58.0667 641.882 57.565L643.617 56.4271C643.902 56.2399 650.622 51.8153 657.422 45.3992C661.521 41.5286 664.823 37.7104 667.224 34.0494C668.739 31.736 669.932 29.4451 670.752 27.2365C671.74 24.5938 672.238 21.9959 672.238 19.5028C672.245 16.86 671.725 14.2921 670.708 11.8739Z" fill="#FFC41E"/>
<line x1="576" y1="71.5" y2="71.5" stroke="#EEBF3A"/>
<line x1="576" y1="71.5" y2="71.5" stroke="#EEBF3A"/>
<line x1="576" y1="71.5" y2="71.5" stroke="#EEBF3A"/>
<line x1="1366" y1="71.5" x2="789.999" y2="71.5" stroke="#EEBF3A"/>
<line x1="1366" y1="71.5" x2="789.999" y2="71.5" stroke="#EEBF3A"/>
<line x1="1366" y1="71.5" x2="789.999" y2="71.5" stroke="#EEBF3A"/>
</svg>
