<svg width="1366" height="126" viewBox="0 0 1366 126" fill="none" xmlns="http://www.w3.org/2000/svg">
<path d="M669.046 34.0604L691.718 41.8854V73.8066C691.718 74.4267 691.464 75.0214 691.01 75.4599C690.556 75.8983 689.941 76.1447 689.299 76.1447H679.622C678.98 76.1447 678.365 75.8983 677.911 75.4599C677.457 75.0214 677.203 74.4267 677.203 73.8066V57.4405H653.009V73.8066C653.009 74.4267 652.755 75.0214 652.301 75.4599C651.847 75.8983 651.232 76.1447 650.59 76.1447H640.913C640.271 76.1447 639.656 75.8983 639.202 75.4599C638.748 75.0214 638.494 74.4267 638.494 73.8066V42.5488C632.875 40.6127 628.816 35.4719 628.816 29.3843C628.816 28.1442 629.326 26.9548 630.233 26.0779C631.141 25.201 632.372 24.7083 633.655 24.7083C634.938 24.7083 636.169 25.201 637.076 26.0779C637.984 26.9548 638.494 28.1442 638.494 29.3843C638.496 30.6238 639.006 31.8118 639.913 32.6882C640.82 33.5647 642.05 34.0581 643.332 34.0604H669.046ZM706.234 17.6943V22.3703C706.234 24.8506 705.215 27.2293 703.4 28.9832C701.585 30.737 699.124 31.7224 696.557 31.7224H691.718V36.9215L672.364 30.2421V8.34219C672.364 6.2599 674.968 5.21656 676.493 6.68951L680.618 10.6802H688.728C690.377 10.6802 692.319 11.8375 693.055 13.2652L694.138 15.3562H703.815C704.457 15.3562 705.072 15.6026 705.526 16.041C705.979 16.4795 706.234 17.0742 706.234 17.6943ZM689.299 17.6943C689.299 17.2318 689.157 16.7798 688.891 16.3953C688.626 16.0108 688.248 15.7112 687.806 15.5342C687.364 15.3573 686.877 15.311 686.408 15.4012C685.938 15.4914 685.507 15.7141 685.169 16.041C684.831 16.368 684.6 16.7846 684.507 17.2381C684.414 17.6917 684.462 18.1618 684.645 18.589C684.828 19.0162 685.138 19.3813 685.536 19.6382C685.934 19.8952 686.401 20.0323 686.88 20.0323C687.521 20.0323 688.137 19.7859 688.59 19.3475C689.044 18.909 689.299 18.3143 689.299 17.6943Z" fill="#242424"/>
<path d="M648.315 47.927C643.389 47.927 638.839 50.3676 636.099 54.4341L625.844 69.6223C624.637 71.4132 623.995 73.5194 624 75.6728V99.8782C623.993 101.5 624.534 103.078 625.536 104.36C626.539 105.642 627.945 106.556 629.531 106.955L639.097 109.356C639.785 112.639 641.591 115.589 644.214 117.709C646.837 119.829 650.115 120.991 653.5 121C660.329 121 666.03 116.32 667.675 110.039H702.013C703.657 116.32 709.358 121 716.188 121C723.017 121 728.718 116.32 730.362 110.039H734.625C738.659 110.039 742 106.729 742 102.732V89.374C741.996 86.1173 740.895 82.9552 738.87 80.39C736.845 77.8249 734.012 76.0038 730.823 75.2161L710.885 70.1923L696.482 53.1809C695.104 51.5382 693.378 50.2159 691.427 49.3079C689.475 48.4 687.346 47.9285 685.19 47.927H648.315ZM648.315 55.2343H664.563V69.8489H634.602L642.209 58.5445V58.4312C642.877 57.437 643.785 56.6238 644.851 56.0655C645.917 55.5072 647.106 55.2215 648.312 55.2343H648.315ZM671.938 55.2343H685.19C687.377 55.2343 689.438 56.1915 690.836 57.8613L700.977 69.8489H671.938V55.2343ZM631.375 77.1562H708.352L729.094 82.2932C730.685 82.6845 732.097 83.5964 733.101 84.8813C734.105 86.1663 734.642 87.7492 734.625 89.374V102.732H730.362C728.718 96.4511 723.017 91.7707 716.188 91.7707C709.358 91.7707 703.657 96.4511 702.013 102.732H667.675C666.03 96.4511 660.329 91.7707 653.5 91.7707C646.962 91.7707 641.471 96.0528 639.558 101.932L631.375 99.8818V77.1562ZM653.5 99.078C657.619 99.078 660.875 102.304 660.875 106.385C660.875 110.466 657.619 113.693 653.5 113.693C649.381 113.693 646.125 110.466 646.125 106.385C646.125 102.304 649.381 99.078 653.5 99.078ZM716.188 99.078C720.306 99.078 723.563 102.304 723.563 106.385C723.563 110.466 720.306 113.693 716.188 113.693C712.069 113.693 708.813 110.466 708.813 106.385C708.813 102.304 712.069 99.078 716.188 99.078Z" fill="#FFC41E"/>
<line x1="576" y1="63.5" x2="4.37113e-08" y2="63.5" stroke="#EEBF3A"/>
<line x1="576" y1="63.5" x2="4.37113e-08" y2="63.5" stroke="#EEBF3A"/>
<line x1="576" y1="63.5" x2="4.37113e-08" y2="63.5" stroke="#EEBF3A"/>
<line x1="1366" y1="63.5" x2="790" y2="63.5" stroke="#EEBF3A"/>
<line x1="1366" y1="63.5" x2="790" y2="63.5" stroke="#EEBF3A"/>
<line x1="1366" y1="63.5" x2="790" y2="63.5" stroke="#EEBF3A"/>
</svg>
